<svg width="64" height="64" viewBox="0 0 64 64" fill="none" xmlns="http://www.w3.org/2000/svg">
  <rect width="64" height="64" rx="18" fill="#1F3A2D"/>
  <path d="M18 15H37.5C45.3 15 50.5 19.5 50.5 26.2C50.5 30.8 47.8 34.3 43.3 35.8C48.7 37.2 52 41 52 46.9C52 54.2 46.3 59 37.8 59H18V15ZM36.2 32.3C40.4 32.3 43 30.2 43 26.8C43 23.4 40.4 21.5 36.2 21.5H25.8V32.3H36.2ZM37 52.5C41.9 52.5 44.8 50.1 44.8 46.1C44.8 42.2 41.9 39.8 37 39.8H25.8V52.5H37Z" fill="#F8F1E5"/>
  <path d="M10 50L50 10" stroke="#BF5A36" stroke-width="5" stroke-linecap="round" opacity="0.9"/>
  <path d="M15 60L55 20" stroke="#F4B084" stroke-width="4" stroke-linecap="round" opacity="0.85"/>
</svg>
